<svg width="1519" height="1906" viewBox="0 0 1519 1906" fill="none" xmlns="http://www.w3.org/2000/svg">
    <path d="M410.5 918.5V731.5H490.5V893H598V959H437V918.5H410.5Z" stroke="#333333" stroke-width="13" />
    <path d="M598.5 959V731H679V959H598.5Z" stroke="#333333" stroke-width="13" />
    <path d="M679.5 959.5V892.5H759.5V730.5H908V893.5H988.5V959.5H679.5Z" stroke="#333333" stroke-width="13" />
    <path
        d="M1367.7 1131.69L1430.34 994.368L1289.5 960L1235.5 960L1201.73 1121.61L1258 1143.5L1271 1107.5L1367.7 1131.69Z"
        stroke="#333333" stroke-width="13" />
    <path d="M1236 960H1176V985.5H1136V1082.5L1213 1066L1236 960Z" stroke="#333333" stroke-width="13" />
    <path d="M988 959.5V731H1068.5V892.5H1136V731H1216.5V959.5H988Z" stroke="#333333" stroke-width="13" />
    <path d="M1297.5 892H1217V959.5H1378.5V731H1297.5V892Z" stroke="#333333" stroke-width="13" />
    <path d="M1412 1142.5L1285 1111L1255.5 1239.5L1381 1272.5L1412 1142.5Z" stroke="#333333" stroke-width="13" />
    <path d="M383 730.5H208.5V799H262.5V771.5H356.5V785H383V730.5Z" stroke="#333333" stroke-width="13" />
    <path d="M1377.5 422.5H1216.5V677.5H1377.5V422.5Z" stroke="#333333" stroke-width="13" />
    <path d="M1055 543H1015V597H1055V543Z" stroke="#333333" stroke-width="13" />
    <path d="M988 422H759V677H988V422Z" stroke="#333333" stroke-width="13" />
    <path d="M988.5 677V623H1081.5V543H1136V677H988.5Z" stroke="#333333" stroke-width="13" />
    <path d="M1055 543H1015V597H1055V543Z" stroke="#333333" stroke-width="13" />
    <path d="M679 543H638V611H679V543Z" stroke="#333333" stroke-width="13" />
    <path d="M679 637H638V678H679V637Z" stroke="#333333" stroke-width="13" />
    <path d="M625 637H598V678H625V637Z" stroke="#333333" stroke-width="13" />
    <path
        d="M100.5 945.5V838.5H195V864H249.5V892L291.5 906L273 1026.5H342.5V1053.5H315.5V1083.5L165 1065L183.5 978.5L212 982L220.5 921L195 909.5V945.5H100.5Z"
        stroke="#333333" stroke-width="13" />
    <path
        d="M342 1053.5V1027.5L626 1068V1134H584L573 1231.5L491 1222.5L504.5 1118L438 1109.5L425.5 1210L339 1201L357 1053.5H342Z"
        stroke="#333333" stroke-width="13" />
    <path
        d="M625.5 1133.5V1068L948 1120.5V1175H879L865.5 1267L786.5 1255.5L799 1164L731.5 1152L718.5 1252L638.5 1241L652 1133.5H625.5Z"
        stroke="#333333" stroke-width="13" />
    <path
        d="M1194.5 1188.5L948 1121.5V1180.5L926 1287L1006 1305.5L1029.5 1208L1099.5 1227.5L1077 1323L1160 1344L1194.5 1188.5Z"
        stroke="#333333" stroke-width="13" />
    <path
        d="M880 1014.5L908.5 1113.5L984.5 1130.5L1048 1092.5C1048 1092.5 1029.45 1055.76 1009.5 1040C989.099 1023.88 973.489 1019.63 948 1014.5C921.967 1009.26 880 1014.5 880 1014.5Z"
        stroke="#333333" stroke-width="13" />
    <path d="M1068.5 154L934 221V287.5H1068.5V154Z" stroke="#333333" stroke-width="13" />
    <path d="M1190 286.5V153.5H1324V207H1364L1350.5 247H1310V286.5H1190Z" stroke="#333333" stroke-width="13" />
    <path d="M1421.5 238L1362.5 210.5L1344 268L1404 290L1421.5 238Z" stroke="#333333" stroke-width="13" />
    <path d="M563.5 1735L502 1773L576.5 1843.5L528.5 1847.5V1888H612V1847.5H732.5V1795H629L563.5 1735Z" stroke="#333333"
        stroke-width="13" />
    <path d="M1072 1783L987.5 1699L1109 1592L1205 1699L1171.5 1732.5L1150 1711.5L1072 1783Z" stroke="#333333"
        stroke-width="13" />
    <path d="M1184.5 1745.5L1162 1723.5L1061 1814.5L1085.5 1837L1184.5 1745.5Z" stroke="#333333" stroke-width="13" />
</svg>