<svg width="700" height="218" viewBox="0 0 700 218" fill="none" xmlns="http://www.w3.org/2000/svg">
<path d="M26.7014 148.173H5.90411V164.406H23.1021V169.428H5.90411V190.61H0.00194823V143.222H26.7014V148.173Z" fill="white"/>
<path d="M58.9047 190.614H31.5521V143.222H58.2521V148.173H37.4547V163.967H54.6521V168.926H37.4547V185.654H58.9047V190.614Z" fill="white"/>
<path d="M100.124 174.383C100.124 180.268 98.2954 184.673 94.6459 187.591C91.1074 190.515 86.7546 191.971 81.6327 191.971C76.5483 191.971 72.1506 190.488 68.4539 187.517C64.8107 184.6 62.9902 180.217 62.9902 174.383V143.222H68.8845V172.587C68.8845 175.607 69.0618 177.702 69.392 178.902C69.7831 180.246 70.5161 181.488 71.6194 182.633C74.0712 185.369 77.3856 186.726 81.5568 186.726C85.7289 186.726 89.0389 185.369 91.4908 182.633C92.5944 181.488 93.3391 180.246 93.7201 178.902C94.0541 177.702 94.2163 175.607 94.2163 172.587V143.222H100.124V174.383Z" fill="white"/>
<path d="M132.612 157.577C132.612 154.418 131.726 151.959 129.95 150.184C128.612 148.844 126.169 148.173 122.606 148.173H114.48V167.706C117.116 167.989 119.219 168.133 120.814 168.133C123.495 168.133 125.562 167.82 126.998 167.202C128.731 166.481 130.091 165.269 131.103 163.575C132.117 161.872 132.612 159.872 132.612 157.577ZM138.729 157.223C138.729 159.66 138.33 161.872 137.546 163.866C136.746 165.85 135.624 167.537 134.157 168.926C132.696 170.311 130.921 171.374 128.831 172.121C126.753 172.858 124.409 173.23 121.816 173.23C121.193 173.23 120.271 173.179 119.042 173.089C117.817 172.991 116.295 172.843 114.48 172.656V190.614H108.58V143.222H123.476C128.759 143.222 132.612 144.464 135.063 146.952C137.507 149.443 138.729 152.861 138.729 157.223Z" fill="white"/>
<path d="M182.111 207.255C182.111 210.566 181.081 213.045 179.023 214.685C177.03 216.331 174.589 217.158 171.693 217.158C168.832 217.158 166.363 216.322 164.282 214.646C162.223 213.004 161.206 210.543 161.206 207.255V189.712H164.518V206.244C164.518 207.941 164.62 209.127 164.813 209.798C165.021 210.546 165.44 211.258 166.069 211.901C167.442 213.439 169.298 214.203 171.654 214.203C174.005 214.203 175.867 213.439 177.251 211.901C177.872 211.258 178.281 210.546 178.495 209.798C178.688 209.127 178.784 207.941 178.784 206.244V189.712H182.111V207.255Z" fill="white"/>
<path d="M212.142 216.636H208.288L194.8 195.81C194.747 195.701 194.671 195.579 194.577 195.428C194.489 195.275 194.385 195.104 194.278 194.885C194.082 194.566 193.84 194.019 193.544 193.271V216.388H190.221V189.712H194.555L207.806 210.037C207.88 210.178 207.949 210.283 208.007 210.367C208.067 210.45 208.114 210.546 208.168 210.669C208.22 210.79 208.288 210.944 208.349 211.137C208.414 211.316 208.513 211.578 208.656 211.904C208.679 211.955 208.707 212.006 208.714 212.061C208.718 212.112 208.759 212.195 208.816 212.304V189.712H212.142V216.636Z" fill="white"/>
<path d="M220.935 216.385H224.249V189.706H220.935V216.385Z" fill="white"/>
<path d="M251.954 189.712L241.583 217.074H239.559L229.019 189.712H232.587L240.493 210.525C240.616 210.877 240.716 211.309 240.777 211.824C240.777 211.411 240.85 210.986 241.019 210.525L248.63 189.712H251.954Z" fill="white"/>
<path d="M272.163 216.388H256.77V189.706H271.797V192.499H260.092V201.399H269.776V204.179H260.092V213.594H272.163V216.388Z" fill="white"/>
<path d="M291.573 196.943C291.573 195.279 291.09 194.047 290.121 193.271C289.489 192.756 288.196 192.496 286.227 192.496H281.891V202.164H286.227C289.787 202.164 291.573 200.422 291.573 196.943ZM296.641 216.388H292.826L285.454 204.945H281.891V216.388H278.569V189.712H286.709C287.52 189.712 288.232 189.743 288.836 189.812C289.44 189.879 289.991 189.985 290.479 190.136C290.962 190.284 291.413 190.484 291.816 190.748C292.214 190.994 292.622 191.312 293.037 191.692C294.434 193.064 295.134 194.803 295.134 196.901C295.134 199.115 294.351 200.959 292.783 202.441C291.763 203.441 290.406 204.112 288.734 204.463L296.641 216.388Z" fill="white"/>
<path d="M317.245 191.483L315.716 194.235C315.119 193.893 314.597 193.594 314.125 193.369C313.679 193.141 313.264 192.971 312.917 192.858C311.696 192.491 310.473 192.296 309.229 192.296C307.695 192.296 306.46 192.641 305.526 193.324C304.596 194.011 304.124 194.925 304.124 196.051C304.124 197.052 304.549 197.918 305.387 198.636C306.217 199.371 308.005 200.468 310.735 201.921C312.623 202.912 314.026 203.82 314.947 204.627C316.324 205.813 317.013 207.428 317.013 209.472C317.013 211.763 316.223 213.585 314.635 214.91C313.059 216.243 310.923 216.914 308.219 216.914C306.382 216.914 304.727 216.612 303.27 216.02C302.441 215.703 301.28 215.043 299.831 214.039L301.533 211.413C302.159 211.85 302.725 212.214 303.254 212.509C303.781 212.799 304.228 213.023 304.619 213.152C305.826 213.616 307.116 213.844 308.461 213.844C310.079 213.844 311.327 213.488 312.209 212.788C313.09 212.089 313.522 211.092 313.522 209.802C313.522 208.994 313.391 208.358 313.115 207.906C312.63 207.012 311.871 206.283 310.851 205.713C310.528 205.529 310.002 205.239 309.256 204.846C308.505 204.459 307.562 203.956 306.391 203.332C302.591 201.279 300.688 198.951 300.688 196.342C300.688 194.211 301.491 192.499 303.118 191.197C304.727 189.914 306.874 189.264 309.511 189.264C311.215 189.264 312.706 189.481 314.017 189.914C314.895 190.207 315.985 190.738 317.245 191.483Z" fill="white"/>
<path d="M323.846 216.385H327.169V189.706H323.846V216.385Z" fill="white"/>
<path d="M354.905 202.885C354.905 199.955 353.904 197.484 351.899 195.49C349.905 193.493 347.409 192.496 344.403 192.496H339.341V213.594H344.403C347.676 213.594 350.08 212.791 351.626 211.176C352.112 210.662 352.56 210.076 352.964 209.41C353.357 208.763 353.702 208.057 353.994 207.335C354.275 206.608 354.501 205.864 354.662 205.113C354.821 204.356 354.905 203.611 354.905 202.885ZM358.385 202.928C358.385 206.534 357.182 209.727 354.788 212.509C353.571 213.913 352.197 214.903 350.66 215.494C349.146 216.089 347.216 216.388 344.897 216.388H336.019V189.712H344.942C348.827 189.712 352.041 190.95 354.584 193.426C357.116 195.882 358.385 199.053 358.385 202.928Z" fill="white"/>
<path d="M376.784 205.471L372.459 193.267L368.08 205.471H376.784ZM384.162 216.388H380.6L377.839 208.51H367.025L364.273 216.388H360.702L370.667 188.943H374.228L384.162 216.388Z" fill="white"/>
<path d="M407.77 202.885C407.77 199.955 406.771 197.484 404.774 195.49C402.77 193.493 400.269 192.496 397.276 192.496H392.208V213.594H397.276C400.552 213.594 402.95 212.791 404.497 211.176C404.972 210.662 405.42 210.076 405.824 209.41C406.233 208.763 406.577 208.057 406.854 207.335C407.134 206.608 407.362 205.864 407.526 205.113C407.691 204.356 407.77 203.611 407.77 202.885ZM411.25 202.928C411.25 206.534 410.052 209.727 407.653 212.509C406.426 213.913 405.064 214.903 403.539 215.494C402.006 216.089 400.088 216.388 397.768 216.388H388.889V189.712H397.803C401.689 189.712 404.908 190.95 407.448 193.426C409.981 195.882 411.25 199.053 411.25 202.928Z" fill="white"/>
<path d="M433.063 216.388H417.671V189.706H432.702V192.499H420.983V201.399H430.664V204.179H420.983V213.594H433.063V216.388Z" fill="white"/>
<path d="M468.491 202.885C468.491 199.955 467.485 197.484 465.496 195.49C463.501 193.493 460.993 192.496 457.998 192.496H452.929V213.594H457.998C461.266 213.594 463.677 212.791 465.208 211.176C465.696 210.662 466.141 210.076 466.55 209.41C466.959 208.763 467.288 208.057 467.573 207.335C467.863 206.608 468.085 205.864 468.248 205.113C468.406 204.356 468.491 203.611 468.491 202.885ZM471.976 202.928C471.976 206.534 470.773 209.727 468.369 212.509C467.155 213.913 465.795 214.903 464.261 215.494C462.727 216.089 460.808 216.388 458.48 216.388H449.61V189.712H458.529C462.423 189.712 465.63 190.95 468.162 193.426C470.714 195.882 471.976 199.053 471.976 202.928Z" fill="white"/>
<path d="M499.21 203.043C499.21 200.089 498.25 197.523 496.331 195.368C494.417 193.212 492.116 192.131 489.451 192.131C486.742 192.131 484.44 193.212 482.511 195.368C480.604 197.523 479.634 200.089 479.634 203.043C479.634 206.066 480.604 208.652 482.511 210.81C484.41 212.936 486.719 213.999 489.451 213.999C492.141 213.999 494.441 212.936 496.331 210.81C498.25 208.652 499.21 206.066 499.21 203.043ZM502.852 203.043C502.852 207.057 501.587 210.374 499.054 212.994C496.528 215.605 493.336 216.911 489.451 216.911C485.555 216.911 482.34 215.605 479.798 212.994C477.253 210.374 475.994 207.057 475.994 203.043C475.994 199.06 477.253 195.761 479.798 193.144C482.34 190.53 485.555 189.228 489.451 189.228C493.336 189.228 496.528 190.53 499.054 193.144C501.587 195.701 502.852 199.009 502.852 203.043Z" fill="white"/>
<path d="M532.958 197.796C532.958 196.019 532.454 194.63 531.463 193.634C530.7 192.881 529.327 192.499 527.322 192.499H522.749V203.492C524.227 203.659 525.423 203.734 526.312 203.734C527.822 203.734 528.985 203.56 529.795 203.208C530.771 202.799 531.54 202.129 532.107 201.174C532.671 200.21 532.958 199.087 532.958 197.796ZM536.402 197.59C536.402 198.967 536.177 200.21 535.73 201.334C535.283 202.446 534.647 203.403 533.822 204.179C533.009 204.965 532.005 205.555 530.834 205.98C529.654 206.396 528.336 206.608 526.884 206.608C526.532 206.608 526.01 206.577 525.321 206.527C524.624 206.467 523.78 206.392 522.749 206.283V216.388H519.418V189.712H527.81C530.786 189.712 532.958 190.406 534.329 191.814C535.71 193.206 536.402 195.139 536.402 197.59Z" fill="white"/>
<path d="M562.747 203.043C562.747 200.089 561.797 197.523 559.875 195.368C557.954 193.212 555.669 192.131 552.987 192.131C550.289 192.131 547.976 193.212 546.06 195.368C544.141 197.523 543.181 200.089 543.181 203.043C543.181 206.066 544.141 208.652 546.06 210.81C547.954 212.936 550.266 213.999 552.987 213.999C555.687 213.999 557.987 212.936 559.875 210.81C561.797 208.652 562.747 206.066 562.747 203.043ZM566.396 203.043C566.396 207.057 565.131 210.374 562.591 212.994C560.077 215.605 556.88 216.911 552.987 216.911C549.101 216.911 545.887 215.605 543.344 212.994C540.804 210.374 539.54 207.057 539.54 203.043C539.54 199.06 540.804 195.761 543.344 193.144C545.887 190.53 549.101 189.228 552.987 189.228C556.88 189.228 560.077 190.53 562.591 193.144C565.131 195.701 566.396 199.009 566.396 203.043Z" fill="white"/>
<path d="M585.825 196.943C585.825 195.279 585.344 194.047 584.366 193.271C583.745 192.756 582.447 192.496 580.482 192.496H576.148V202.164H580.482C584.038 202.164 585.825 200.422 585.825 196.943ZM590.886 216.388H587.079L579.703 204.945H576.148V216.388H572.814V189.712H580.96C581.775 189.712 582.487 189.743 583.088 189.812C583.689 189.879 584.25 189.985 584.729 190.136C585.214 190.284 585.664 190.484 586.067 190.748C586.473 190.994 586.882 191.312 587.289 191.692C588.692 193.064 589.391 194.803 589.391 196.901C589.391 199.115 588.609 200.959 587.031 202.441C586.018 203.441 584.659 204.112 582.998 204.463L590.886 216.388Z" fill="white"/>
<path d="M613.532 192.499H604.619V216.385H601.3V192.499H592.381V189.712H613.532V192.499Z" fill="white"/>
<path d="M639.1 203.043C639.1 200.089 638.14 197.523 636.216 195.368C634.302 193.212 632.01 192.131 629.337 192.131C626.629 192.131 624.327 193.212 622.406 195.368C620.492 197.523 619.533 200.089 619.533 203.043C619.533 206.066 620.492 208.652 622.406 210.81C624.293 212.936 626.606 213.999 629.337 213.999C632.033 213.999 634.329 212.936 636.216 210.81C638.14 208.652 639.1 206.066 639.1 203.043ZM642.753 203.043C642.753 207.057 641.469 210.374 638.934 212.994C636.428 215.605 633.221 216.911 629.337 216.911C625.443 216.911 622.226 215.605 619.691 212.994C617.153 210.374 615.887 207.057 615.887 203.043C615.887 199.06 617.153 195.761 619.691 193.144C622.226 190.53 625.443 189.228 629.337 189.228C633.221 189.228 636.428 190.53 638.934 193.144C641.469 195.701 642.753 199.009 642.753 203.043Z" fill="white"/>
<path d="M177.697 147.553H166.225V154.422H175.622V158.702H166.225V169.907H161.119V143.226H177.697V147.553Z" fill="white"/>
<path d="M193.77 158.988L190.65 149.326L187.569 158.988H193.77ZM202.603 169.907H197.26L195.15 163.311H186.197L184.01 169.907H178.662L188.342 143.226H192.925L202.603 169.907Z" fill="white"/>
<path d="M226.309 145.284L224.355 149.33C222.628 148.086 220.569 147.467 218.194 147.467C215.613 147.467 213.492 148.294 211.84 149.942C210.189 151.55 209.369 153.629 209.369 156.159C209.369 159.019 210.242 161.327 212.005 163.069C213.73 164.795 216.073 165.659 219.008 165.659C220.82 165.659 222.775 165.242 224.883 164.411L225.817 168.695C224.355 169.366 223.155 169.796 222.218 169.982C221.533 170.122 220.847 170.224 220.143 170.303C219.438 170.395 218.698 170.424 217.921 170.424C213.922 170.424 210.688 169.322 208.24 167.116C205.24 164.419 203.734 160.857 203.734 156.443C203.734 152.457 205.104 149.129 207.825 146.459C210.371 143.982 213.73 142.742 217.921 142.742C221.239 142.742 224.028 143.59 226.309 145.284Z" fill="white"/>
<path d="M252.625 159.471C252.625 161.899 252.361 163.775 251.815 165.093C251.28 166.416 250.321 167.546 248.937 168.494C247.084 169.774 244.568 170.424 241.406 170.424C238.245 170.424 235.72 169.774 233.834 168.494C232.456 167.546 231.489 166.423 230.958 165.132C230.446 163.85 230.184 161.955 230.184 159.471V143.226H235.247V159.761C235.247 163.717 237.356 165.701 241.572 165.701C245.538 165.701 247.519 163.717 247.519 159.761V143.226H252.625V159.471Z" fill="white"/>
<path d="M275.272 169.907H259.221V143.226H264.327V165.58H275.272V169.907Z" fill="white"/>
<path d="M297.886 156.524C297.886 153.238 296.864 150.828 294.811 149.286C293.383 148.239 291.244 147.718 288.413 147.718H284.354V165.419H288.413C291.439 165.419 293.779 164.65 295.416 163.111C297.067 161.578 297.886 159.384 297.886 156.524ZM303.396 156.489C303.396 160.205 302.174 163.37 299.712 165.985C297.259 168.597 293.648 169.907 288.895 169.907H279.014V143.226H288.934C293.72 143.226 297.321 144.516 299.753 147.105C302.18 149.698 303.396 152.822 303.396 156.489Z" fill="white"/>
<path d="M319.595 158.988L316.482 149.326L313.394 158.988H319.595ZM328.428 169.907H323.079L320.974 163.311H312.017L309.835 169.907H304.48L314.17 143.226H318.741L328.428 169.907Z" fill="white"/>
<path d="M350.831 156.524C350.831 153.238 349.812 150.828 347.753 149.286C346.32 148.239 344.187 147.718 341.352 147.718H337.3V165.419H341.352C344.379 165.419 346.72 164.65 348.361 163.111C350.009 161.578 350.831 159.384 350.831 156.524ZM356.342 156.489C356.342 160.205 355.115 163.37 352.649 165.985C350.197 168.597 346.586 169.907 341.84 169.907H331.953V143.226H341.878C346.659 143.226 350.258 144.516 352.695 147.105C355.13 149.698 356.342 152.822 356.342 156.489Z" fill="white"/>
<path d="M377.807 169.907H360.994V143.226H377.28V147.55H366.094V154.136H375.251V158.467H366.094V165.58H377.807V169.907Z" fill="white"/>
<path d="M411.554 156.524C411.554 153.238 410.531 150.828 408.478 149.286C407.039 148.239 404.909 147.718 402.068 147.718H398.023V165.419H402.068C405.106 165.419 407.433 164.65 409.073 163.111C410.731 161.578 411.554 159.384 411.554 156.524ZM417.058 156.489C417.058 160.205 415.84 163.37 413.378 165.985C410.913 168.597 407.307 169.907 402.561 169.907H392.668V143.226H402.604C407.382 143.226 410.979 144.516 413.417 147.105C415.847 149.698 417.058 152.822 417.058 156.489Z" fill="white"/>
<path d="M438.528 169.907H421.714V143.226H438.002V147.55H426.813V154.136H435.973V158.467H426.813V165.58H438.528V169.907Z" fill="white"/>
<path d="M470.441 169.907H453.636V143.226H469.928V147.55H458.741V154.136H467.906V158.467H458.741V165.58H470.441V169.907Z" fill="white"/>
<path d="M498.633 170.147H493.29L481.821 152.884C481.768 152.809 481.698 152.681 481.593 152.499C481.488 152.33 481.381 152.103 481.247 151.841C481.2 151.72 481.147 151.636 481.082 151.55C481.035 151.472 480.981 151.377 480.919 151.272C480.76 150.974 480.643 150.66 480.556 150.342V169.907H475.694V143.226H481.578L492.8 160.771C492.824 160.824 492.907 161.009 493.056 161.316C493.207 161.624 493.29 161.806 493.329 161.857L493.567 162.548L493.809 163.03V143.226H498.633V170.147Z" fill="white"/>
<path d="M528.29 168.899C527.948 168.973 527.537 169.071 527.081 169.186C526.626 169.282 526.134 169.41 525.589 169.537C523.1 170.131 520.855 170.424 518.86 170.424C514.428 170.424 510.806 169.146 508.003 166.587C505.218 163.998 503.827 160.648 503.827 156.524C503.827 152.427 505.305 149.031 508.254 146.341C510.806 143.967 514.304 142.783 518.695 142.783C520.75 142.783 522.61 142.987 524.294 143.391C524.825 143.523 525.431 143.712 526.088 143.931C526.755 144.164 527.478 144.448 528.257 144.803L527.05 149.047C526.775 148.942 526.453 148.827 526.088 148.702C525.73 148.589 525.313 148.439 524.848 148.279C522.937 147.631 521.098 147.309 519.345 147.309C516.378 147.309 513.923 148.149 512.004 149.817C510.127 151.46 509.175 153.618 509.175 156.285C509.175 159.005 510.198 161.302 512.214 163.158C514.262 164.987 516.774 165.898 519.712 165.898C520.658 165.898 521.821 165.717 523.198 165.339V157.981H528.29V168.899Z" fill="white"/>
<path d="M551.743 169.907H534.926V143.226H551.206V147.55H540.028V154.136H549.19V158.467H540.028V165.58H551.743V169.907Z" fill="white"/>
<path d="M579.927 170.147H574.575L563.11 152.884C563.054 152.809 562.977 152.681 562.883 152.499C562.79 152.33 562.676 152.103 562.535 151.841C562.489 151.72 562.43 151.636 562.371 151.55C562.323 151.472 562.272 151.377 562.213 151.272C562.055 150.974 561.938 150.66 561.86 150.342V169.907H556.999V143.226H562.865L574.087 160.771C574.119 160.824 574.202 161.009 574.35 161.316C574.496 161.624 574.592 161.806 574.613 161.857L574.859 162.548L575.103 163.03V143.226H579.927V170.147Z" fill="white"/>
<path d="M611.444 169.907H606.341V158.467H592.615V169.907H587.513V143.226H592.615V153.893H606.341V143.226H611.444V169.907Z" fill="white"/>
<path d="M630.272 158.988L627.14 149.326L624.066 158.988H630.272ZM639.1 169.907H633.747L631.641 163.311H622.699L620.504 169.907H615.164L624.836 143.226H629.414L639.1 169.907Z" fill="white"/>
<path d="M655.947 151.111C655.947 149.813 655.593 148.902 654.895 148.356C654.198 147.818 652.994 147.553 651.3 147.553H647.976V154.909H651.3C654.398 154.909 655.947 153.645 655.947 151.111ZM662.223 169.907H656.641L650.526 159.228H647.976V169.907H642.863V143.226H651.77C652.752 143.226 653.597 143.26 654.328 143.328C655.056 143.393 655.701 143.504 656.252 143.649C656.807 143.794 657.308 143.998 657.749 144.261C658.189 144.512 658.623 144.829 659.03 145.211C660.486 146.552 661.217 148.483 661.217 150.99C661.217 153.093 660.73 154.762 659.758 155.995C658.92 157.101 657.53 157.93 655.585 158.467L662.223 169.907Z" fill="white"/>
<path d="M671.549 169.907H666.449V143.222H671.549V169.907Z" fill="white"/>
<path d="M690.277 158.988L687.148 149.326L684.079 158.988H690.277ZM699.105 169.907H693.76L691.648 163.311H682.694L680.509 169.907H675.162L684.84 143.226H689.42L699.105 169.907Z" fill="white"/>
<path d="M172.804 61.9362C173.796 62.5533 175.072 63.1068 176.636 63.5995C178.193 64.0946 179.855 64.3459 181.607 64.3459C186.41 64.3459 190.721 62.8356 194.525 59.8264C198.343 56.8122 200.243 51.8387 200.243 44.8946C200.243 37.499 198.547 32.0652 195.158 28.5932C191.762 25.1212 186.641 23.3908 179.779 23.3908H172.804V61.9362ZM161.145 23.3908H149.826V21.5671H182.409C191.635 21.5671 198.966 23.3162 204.419 26.8205C209.866 30.3311 212.592 36.0112 212.592 43.8634C212.592 51.3361 209.713 56.9229 203.965 60.6188C198.206 64.3173 191.404 66.1671 183.552 66.1671C178.979 66.1671 175.394 65.5215 172.804 64.2277V100.164H184.466V101.984H149.826V100.164H161.145V23.3908Z" fill="white"/>
<path d="M259.009 101.875C265.183 101.875 269.983 99.7241 273.413 95.4371C276.843 91.1492 279.15 86.0562 280.332 80.1708C281.511 74.2867 282.103 68.1513 282.103 61.7758C282.103 55.1726 281.555 48.9824 280.448 43.204C279.345 37.4406 277.074 32.4061 273.638 28.1118C270.216 23.8262 265.332 21.6816 259.009 21.6816C252.833 21.6816 248.034 23.8262 244.604 28.1118C241.173 32.4061 238.868 37.4953 237.684 43.3757C236.502 49.2611 235.913 55.3978 235.913 61.7758C235.913 68.3864 236.469 74.5691 237.573 80.3437C238.68 86.1196 240.947 91.1492 244.373 95.4371C247.805 99.7241 252.685 101.875 259.009 101.875ZM259.009 19.8566C268.69 19.8566 277.13 23.9519 284.333 32.1511C291.536 40.3553 295.141 50.2252 295.141 61.7758C295.141 73.396 291.573 83.2858 284.446 91.4552C277.324 99.6147 268.844 103.696 259.009 103.696C249.33 103.696 240.886 99.5992 233.681 91.3917C226.484 83.1913 222.88 73.3189 222.88 61.7758C222.88 50.1555 226.442 40.2657 233.569 32.1001C240.698 23.9332 249.172 19.8566 259.009 19.8566Z" fill="white"/>
<path d="M326.367 59.7791H332.085C339.176 59.7791 344.508 58.3858 348.091 55.5993C351.676 52.8189 353.472 48.2211 353.472 41.8182C353.472 36.3172 352.094 31.8774 349.352 28.48C346.605 25.0938 341.54 23.3908 334.144 23.3908H326.367V59.7791ZM314.706 23.3908H303.276V21.5671H338.371C346.528 21.5671 353.14 22.9753 358.217 25.7992C363.283 28.6169 365.814 33.9599 365.814 41.8182C365.814 47.9934 363.298 52.4544 358.264 55.1999C353.237 57.943 347.593 59.7008 341.347 60.4646C348.583 61.2234 353.829 62.8356 357.069 65.3149C360.309 67.7781 362.35 72.5961 363.188 79.7366L364.783 93.6595C365.171 96.5475 365.908 98.466 367.009 99.4179C368.118 100.372 369.353 100.85 370.729 100.85C371.948 100.85 373.514 100.465 375.415 99.7012L376.1 101.187C374.883 101.643 373.537 102.004 372.042 102.271C370.56 102.538 368.794 102.67 366.727 102.67C360.403 102.67 356.342 101.208 354.553 98.2812C352.762 95.3545 351.364 89.976 350.378 82.1413L349.581 75.2918C349.122 70.8856 347.846 67.4957 345.747 65.1383C343.654 62.7846 339.667 61.6041 333.797 61.6041H326.367V100.164H338.029V101.984H303.276V100.164H314.706V23.3908Z" fill="white"/>
<path d="M409.18 23.3908H406.771C396.406 23.3908 389.658 24.7057 386.533 27.3269C383.411 29.9467 381.846 35.9067 381.846 45.177H380.021V21.5671H449.995V45.177H448.161C448.161 35.9814 446.6 30.0462 443.47 27.3816C440.344 24.7256 433.645 23.3908 423.351 23.3908H420.832V100.164H432.614V101.989H397.397V100.164H409.18V23.3908Z" fill="white"/>
<path d="M494.492 101.875C500.673 101.875 505.471 99.7241 508.9 95.4371C512.331 91.1492 514.633 86.0562 515.821 80.1708C516.999 74.2867 517.589 68.1513 517.589 61.7758C517.589 55.1726 517.038 48.9824 515.938 43.204C514.83 37.4406 512.56 32.4061 509.129 28.1118C505.708 23.8262 500.822 21.6816 494.492 21.6816C488.319 21.6816 483.517 23.8262 480.093 28.1118C476.659 32.4061 474.35 37.4953 473.172 43.3757C471.991 49.2611 471.401 55.3978 471.401 61.7758C471.401 68.3864 471.949 74.5691 473.06 80.3437C474.163 86.1196 476.435 91.1492 479.861 95.4371C483.293 99.7241 488.168 101.875 494.492 101.875ZM494.492 19.8566C504.173 19.8566 512.618 23.9519 519.822 32.1511C527.028 40.3553 530.62 50.2252 530.62 61.7758C530.62 73.396 527.06 83.2858 519.934 91.4552C512.809 99.6147 504.326 103.696 494.492 103.696C484.815 103.696 476.371 99.5992 469.168 91.3917C461.964 83.1913 458.368 73.3189 458.368 61.7758C458.368 50.1555 461.933 40.2657 469.054 32.1001C476.184 23.9332 484.667 19.8566 494.492 19.8566Z" fill="white"/>
<path d="M0 122.612H138.568V0.993774H0V122.612ZM98.6437 23.5102H95.6668C93.6143 23.5102 92.1079 24.2902 91.1546 25.844C90.199 27.3928 89.7251 29.8099 89.7251 33.0729V75.6787C89.7251 84.3295 87.228 91.133 82.2342 96.0727C77.239 101.004 69.6769 103.476 59.5378 103.476C50.163 103.476 42.675 100.949 37.0738 95.8963C31.4711 90.8468 28.6697 83.9178 28.6697 75.1065V23.5102H19.7541V21.4564H55.7686V23.5102H46.5022V73.6249C46.5022 81.9808 47.9011 88.3551 50.6782 92.761C53.4599 97.167 58.7731 100.066 66.5149 99.3684C72.6363 98.811 76.1314 97.3944 80.0205 93.4438C83.9092 89.4971 85.8506 83.8008 85.8506 76.3542V33.0729C85.8506 29.6568 85.2992 27.2074 84.1931 25.7258C83.0875 24.2541 82.2186 23.5102 79.3173 23.5102H76.0057V21.4564H98.6437V23.5102ZM116.784 100.497C115.221 102.059 113.302 102.844 111.034 102.844C108.767 102.844 106.851 102.059 105.283 100.497C103.712 98.9359 102.928 97.0212 102.928 94.7616C102.928 92.4976 103.712 90.5868 105.283 89.0182C106.851 87.4569 108.767 86.6807 111.034 86.6807C113.302 86.6807 115.221 87.4569 116.784 89.0182C118.354 90.5868 119.134 92.4976 119.134 94.7616C119.134 97.0212 118.354 98.9359 116.784 100.497Z" fill="white"/>
</svg>
